<svg width="126" height="45" viewBox="0 0 126 45" fill="none" xmlns="http://www.w3.org/2000/svg">
<rect x="24.501" y="32" width="9" height="7" rx="3.5" transform="rotate(90 24.501 32)" fill="url(#paint0_linear_2192_77636)"/>
<rect x="7.25879" y="8.50012" width="30.0606" height="7.25806" rx="3.62903" transform="rotate(90 7.25879 8.50012)" fill="url(#paint1_linear_2192_77636)"/>
<rect x="16.1299" y="25.5001" width="17.4545" height="7.25806" rx="3.62903" transform="rotate(90 16.1299 25.5001)" fill="url(#paint2_linear_2192_77636)"/>
<g style="mix-blend-mode:screen" opacity="0.31">
<rect x="16.1299" y="8.50012" width="32" height="7.25806" rx="3.62903" transform="rotate(90 16.1299 8.50012)" fill="url(#paint3_linear_2192_77636)"/>
</g>
<g style="mix-blend-mode:screen" opacity="0.31">
<rect x="24.501" y="26" width="15" height="7" rx="3.5" transform="rotate(90 24.501 26)" fill="url(#paint4_linear_2192_77636)"/>
</g>
<path d="M40.8359 36.4824C34.7129 36.4824 31.5029 33.8105 31.0947 30.2109V30.0811H37.4775L37.5146 30.1924C37.9043 31.25 38.9434 32.0479 40.8545 32.0479C42.6172 32.0479 43.749 31.3613 43.749 30.248V30.2295C43.749 29.2646 43.0439 28.708 41.1699 28.3184L37.6074 27.6133C33.6182 26.8154 31.5771 24.7373 31.5771 21.583V21.5645C31.5771 17.4453 35.1025 14.8662 40.6504 14.8662C46.625 14.8662 49.6309 17.835 49.7422 21.1377V21.2305H43.7305L43.6934 21.1006C43.4893 20.2471 42.4688 19.2822 40.6504 19.2822C39.0176 19.2822 37.9229 19.9688 37.9229 21.1191V21.1562C37.9229 22.084 38.5537 22.6221 40.5205 23.0303L44.083 23.7354C48.3506 24.5889 50.2988 26.333 50.2988 29.4316V29.4502C50.2988 33.7363 46.4395 36.4824 40.8359 36.4824ZM54.6993 12.584C52.7881 12.584 51.211 11.0811 51.211 9.16992C51.211 7.25879 52.7881 5.7373 54.6993 5.7373C56.6104 5.7373 58.1875 7.25879 58.1875 9.16992C58.1875 11.0811 56.6104 12.584 54.6993 12.584ZM51.3965 36V15.3486H57.9834V36H51.3965ZM69.4903 43.2549C63.4044 43.2549 60.0089 40.7871 59.5821 37.2061V37.0762H65.9835L66.0206 37.1875C66.2989 38.1895 67.4864 38.8574 69.6759 38.8574C72.1993 38.8574 73.6466 37.6885 73.6466 35.6104V31.9365H73.294C72.2364 34.0703 70.1397 35.1836 67.2452 35.1836C62.1427 35.1836 58.9884 31.25 58.9884 25.3125V25.2754C58.9884 19.0596 62.1241 15.0332 67.3565 15.0332C70.1583 15.0332 72.3477 16.3877 73.3682 18.707H73.628V15.3486H80.2149V35.1836C80.2149 40.1562 76.0587 43.2549 69.4903 43.2549ZM69.6759 30.3408C72.1993 30.3408 73.6837 28.3369 73.6837 25.3125V25.2754C73.6837 22.2324 72.1807 20.2285 69.6759 20.2285C67.1895 20.2285 65.7237 22.2324 65.7237 25.2568V25.2939C65.7237 28.3369 67.171 30.3408 69.6759 30.3408ZM82.2775 36V15.3486H88.8458V18.5771H89.1984C90.089 16.3135 92.1671 14.8662 95.0802 14.8662C99.6632 14.8662 102.057 17.7051 102.057 22.6592V36H95.4884V24.125C95.4884 21.6201 94.4679 20.21 92.2413 20.21C90.1075 20.21 88.8458 21.8242 88.8458 24.1992V36H82.2775ZM104.138 36V7.61133H110.706V36H104.138Z" fill="white"/>
<path d="M117.519 36.6123C115.311 36.6123 113.808 35.0723 113.808 32.957C113.808 30.8604 115.311 29.3203 117.519 29.3203C119.745 29.3203 121.248 30.8604 121.248 32.957C121.248 35.0723 119.745 36.6123 117.519 36.6123Z" fill="url(#paint5_linear_2192_77636)"/>
<defs>
<linearGradient id="paint0_linear_2192_77636" x1="23.6572" y1="36.34" x2="31.5196" y2="36.8247" gradientUnits="userSpaceOnUse">
<stop stop-color="#1434FF"/>
<stop offset="0.509615" stop-color="#9F6BFA"/>
<stop offset="1" stop-color="#83FFC8"/>
</linearGradient>
<linearGradient id="paint1_linear_2192_77636" x1="4.44061" y1="13.0001" x2="29.8011" y2="18.0365" gradientUnits="userSpaceOnUse">
<stop stop-color="#1434FF"/>
<stop offset="0.509615" stop-color="#9F6BFA"/>
<stop offset="1" stop-color="#83FFC8"/>
</linearGradient>
<linearGradient id="paint2_linear_2192_77636" x1="14.4935" y1="30.0001" x2="29.5989" y2="31.7419" gradientUnits="userSpaceOnUse">
<stop stop-color="#1434FF"/>
<stop offset="0.509615" stop-color="#9F6BFA"/>
<stop offset="1" stop-color="#83FFC8"/>
</linearGradient>
<linearGradient id="paint3_linear_2192_77636" x1="13.1299" y1="13.0001" x2="84.7231" y2="27.4906" gradientUnits="userSpaceOnUse">
<stop stop-color="#2370FF"/>
<stop offset="0.509615" stop-color="#9F6BFA"/>
<stop offset="1" stop-color="#86EFF5"/>
</linearGradient>
<linearGradient id="paint4_linear_2192_77636" x1="23.0947" y1="30.34" x2="57.694" y2="33.7436" gradientUnits="userSpaceOnUse">
<stop stop-color="#2370FF"/>
<stop offset="0.509615" stop-color="#9F6BFA"/>
<stop offset="1" stop-color="#86EFF5"/>
</linearGradient>
<linearGradient id="paint5_linear_2192_77636" x1="77.499" y1="0" x2="77.499" y2="45" gradientUnits="userSpaceOnUse">
<stop offset="0.403846" stop-color="#6E57FC"/>
<stop offset="1" stop-color="#83FFC8"/>
</linearGradient>
</defs>
</svg>
