<svg width="126" height="45" viewBox="0 0 126 45" fill="none" xmlns="http://www.w3.org/2000/svg">
<!-- Gradient bars (signal bars) -->
<rect x="8" y="15" width="6" height="20" rx="3" fill="url(#paint0_linear_2192_77636)"/>
<rect x="18" y="20" width="6" height="15" rx="3" fill="url(#paint1_linear_2192_77636)"/>
<rect x="28" y="25" width="6" height="10" rx="3" fill="url(#paint2_linear_2192_77636)"/>

<!-- Text: "sign" -->
<path d="M45 15L48 15L48 35L45 35L45 15ZM50 15L53 15L53 35L50 35L50 15ZM55 15L58 15L58 35L55 35L55 15ZM60 15L63 15L63 35L60 35L60 15Z" fill="white"/>

<!-- Dot replacing "l" -->
<circle cx="65" cy="25" r="3" fill="url(#paint3_linear_2192_77636)"/>

<!-- Period -->
<circle cx="70" cy="35" r="1.5" fill="white"/>

<defs>
<linearGradient id="paint0_linear_2192_77636" x1="11" y1="15" x2="11" y2="35" gradientUnits="userSpaceOnUse">
<stop stop-color="#83FFC8"/>
<stop offset="1" stop-color="#6E57FC"/>
</linearGradient>
<linearGradient id="paint1_linear_2192_77636" x1="21" y1="20" x2="21" y2="35" gradientUnits="userSpaceOnUse">
<stop stop-color="#FFB3E6"/>
<stop offset="1" stop-color="#6E57FC"/>
</linearGradient>
<linearGradient id="paint2_linear_2192_77636" x1="31" y1="25" x2="31" y2="35" gradientUnits="userSpaceOnUse">
<stop stop-color="#83FFC8"/>
<stop offset="1" stop-color="#6E57FC"/>
</linearGradient>
<linearGradient id="paint3_linear_2192_77636" x1="65" y1="22" x2="65" y2="28" gradientUnits="userSpaceOnUse">
<stop stop-color="#6E57FC"/>
<stop offset="1" stop-color="#83FFC8"/>
</linearGradient>
</defs>
</svg>
